<?xml version="1.0" encoding="UTF-8"?>
<svg xmlns="http://www.w3.org/2000/svg" xmlns:xlink="http://www.w3.org/1999/xlink" width="612pt" height="792pt" viewBox="0 0 612 792" version="1.1">
<g id="surface1">
<path style=" stroke:none;fill-rule:evenodd;fill:rgb(0.392151%,43.530273%,81.639099%);fill-opacity:1;" d="M 216 306 L 396 306 L 396 486 L 216 486 L 216 306 "/>
<path style=" stroke:none;fill-rule:evenodd;fill:rgb(100%,100%,100%);fill-opacity:1;" d="M 281.203125 457.519531 L 281.203125 393.019531 L 396 393.125 L 396 410.941406 L 382.730469 425.117188 L 396 439.429688 L 396 457.621094 L 374.816406 457.621094 L 363.558594 445.199219 L 352.378906 457.671875 L 281.203125 457.519531 "/>
<path style=" stroke:none;fill-rule:evenodd;fill:rgb(0.392151%,43.530273%,81.639099%);fill-opacity:1;" d="M 288.871094 450.445313 L 288.871094 400.117188 L 331.546875 400.117188 L 331.546875 411.710938 L 302.691406 411.710938 L 302.691406 419.582031 L 330.859375 419.582031 L 330.859375 430.984375 L 302.691406 430.984375 L 302.691406 438.714844 L 331.546875 438.714844 L 331.546875 450.445313 L 288.871094 450.445313 "/>
<path style=" stroke:none;fill-rule:evenodd;fill:rgb(0.392151%,43.530273%,81.639099%);fill-opacity:1;" d="M 331.335938 450.445313 L 354.945313 425.253906 L 331.335938 400.121094 L 349.609375 400.121094 L 364.039063 416.070313 L 378.507813 400.121094 L 396 400.121094 L 396 400.515625 L 372.890625 425.253906 L 396 449.734375 L 396 450.445313 L 378.332031 450.445313 L 363.648438 434.335938 L 349.113281 450.445313 L 331.335938 450.445313 "/>
<path style=" stroke:none;fill-rule:evenodd;fill:rgb(100%,100%,100%);fill-opacity:1;" d="M 286.558594 335.773438 L 314.230469 335.773438 L 323.949219 357.84375 L 323.949219 335.773438 L 358.113281 335.773438 L 364.003906 352.308594 L 369.914063 335.773438 L 396 335.773438 L 396 400.269531 L 258.140625 400.269531 L 286.558594 335.773438 "/>
<path style=" stroke:none;fill-rule:evenodd;fill:rgb(0.392151%,43.530273%,81.639099%);fill-opacity:1;" d="M 291.800781 342.78125 L 269.46875 393.066406 L 284.785156 393.066406 L 288.996094 382.996094 L 311.824219 382.996094 L 316.035156 393.066406 L 331.730469 393.066406 L 309.492188 342.78125 Z M 293.71875 371.710938 L 300.414063 355.703125 L 307.105469 371.710938 Z M 293.71875 371.710938 "/>
<path style=" stroke:none;fill-rule:evenodd;fill:rgb(0.392151%,43.530273%,81.639099%);fill-opacity:1;" d="M 331.523438 393.058594 L 331.523438 342.773438 L 353.050781 342.847656 L 364.128906 373.761719 L 375.28125 342.773438 L 396 342.773438 L 396 393.058594 L 382.667969 393.175781 L 382.667969 358.632813 L 370.082031 393.058594 L 357.910156 393.058594 L 345.0625 358.515625 L 345.0625 393.058594 L 331.523438 393.058594 "/>
</g>
</svg>
